<svg width="267" height="210" viewBox="0 0 267 210" fill="none" xmlns="http://www.w3.org/2000/svg">
<g opacity="0.1">
<path d="M83.8485 34.1647L95.0175 3.61158C96.556 -0.597114 101.152 -2.65796 105.269 -0.971469C109.395 0.718075 113.98 -1.33819 115.521 -5.55452C117.063 -9.77086 114.979 -14.5585 110.854 -16.2481C98.5156 -21.3014 84.7165 -15.1326 80.0981 -2.49889L68.9291 28.0543C65.8493 36.4793 56.6533 40.5903 48.4252 37.2204C44.3 35.5308 39.7146 37.5871 38.1733 41.8034C36.632 46.0198 38.7155 50.8074 42.8408 52.497C51.0688 55.8669 55.2555 65.459 52.1757 73.884L41.0067 104.437C36.3883 117.071 42.6707 131.464 55.0091 136.518C59.1343 138.207 63.7197 136.151 65.261 131.935C66.8024 127.718 64.7188 122.931 60.5936 121.241C56.4758 119.555 54.3876 114.756 55.9261 110.548L67.0951 79.9945C70.4458 70.8285 69.3791 61.0302 65.1625 52.8573C73.4781 49.8172 80.4978 43.3307 83.8485 34.1647Z" fill="#0C1136"/>
<path d="M225.044 108.868C216.816 105.498 212.629 95.9055 215.709 87.4805L226.878 56.9273C231.496 44.2936 225.214 29.9001 212.876 24.8467C208.751 23.1572 204.165 25.2135 202.624 29.4298C201.082 33.6461 203.166 38.4338 207.291 40.1233C211.409 41.8098 213.497 46.6082 211.959 50.8168L200.79 81.37C197.439 90.536 198.506 100.334 202.722 108.507C194.407 111.547 187.387 118.034 184.036 127.2L172.867 157.753C171.329 161.962 166.733 164.022 162.615 162.336C158.49 160.646 153.905 162.703 152.363 166.919C150.822 171.135 152.906 175.923 157.031 177.613C169.369 182.666 183.168 176.497 187.787 163.863L198.956 133.31C202.036 124.885 211.232 120.774 219.46 124.144C223.585 125.834 228.17 123.777 229.712 119.561C231.253 115.345 229.169 110.557 225.044 108.868Z" fill="#0C1136"/>
</g>
<path opacity="0.1" fill-rule="evenodd" clip-rule="evenodd" d="M187.682 -0.598385C189.669 0.825905 190.126 3.59157 188.702 5.5789L78.599 159.206C77.1748 161.194 74.4091 161.65 72.4218 160.226C70.4344 158.801 69.978 156.036 71.4023 154.048L181.505 0.421087C182.929 -1.56624 185.695 -2.02267 187.682 -0.598385Z" fill="#0C1136"/>
</svg>
