<svg width="393" height="431" viewBox="0 0 393 431" fill="none" xmlns="http://www.w3.org/2000/svg">
<path opacity="0.1" d="M15.6267 78.6358C38.8318 -20.2442 33.8978 -6.58367 128.284 19.1652C134.485 21.2942 140.901 24.232 138.745 31.5259C137.907 34.2429 135.747 37.1738 133.965 39.6194C87.6665 104.747 185.532 167.304 228.215 102.912C243.922 82.8004 224.671 46.9532 245.24 52.0614C360.555 74.9782 340.307 67.8485 314.077 180.14C313.241 183.361 314.438 184.333 317.696 183.492C439.3 159.509 397.511 349.701 294.59 279.576C268.882 281.402 280.988 383.485 242.444 374.633C222.805 371.185 199.807 361.018 180.058 356.917C166.46 354.282 152.398 352.044 154.412 367.063C158.169 484.64 -17.6211 419.301 60.3964 331.553C64.243 327.525 58.6001 327.04 55.9543 325.799C-12.2408 298.711 -58.0948 318.167 -28.9102 241.498C-25.0016 229.066 -21.6295 219.422 -16.8802 205.767C-15.7584 201.239 -12.1744 197.507 -7.23393 199.417C9.18929 207.447 27.0124 219.178 51.7979 207.968C111.11 183.633 90.1479 95.2131 25.086 97.5733C12.1493 99.1377 12.9434 88.3083 15.5855 78.7897L15.6267 78.6358Z" fill="#0C1136"/>
</svg>
