<svg width="118" height="117" viewBox="0 0 118 117" fill="none" xmlns="http://www.w3.org/2000/svg">
<path opacity="0.1" d="M158.372 98.1445C164.052 81.7725 158.372 66.4034 158.372 66.4034L139.66 61.559C139.717 61.7669 139.771 61.9718 139.827 62.1783C139.086 59.8637 138.217 57.6076 137.221 55.419L147.668 38.2228C140.108 22.6296 125.224 15.7781 125.224 15.7781L108.568 25.5825C108.768 25.6953 108.963 25.8109 109.161 25.9251C107.011 24.8139 104.788 23.8257 102.501 22.9678L97.7281 3.42044C81.3562 -2.2599 65.987 3.42044 65.987 3.42044L61.1426 22.1319C61.3505 22.0748 61.5555 22.0206 61.7619 21.965C59.4473 22.7058 57.1898 23.5754 55.0026 24.5709L37.8064 14.1238C22.2133 21.6839 15.3618 36.5684 15.3618 36.5684L25.1662 53.2244C25.2789 53.0253 25.3946 52.8291 25.5088 52.6315C24.3976 54.7807 23.4094 57.0045 22.5515 59.2912L3.00409 64.0639C-2.67625 80.4359 3.00409 95.805 3.00409 95.805L21.7155 100.649C21.6584 100.441 21.6043 100.237 21.5486 100.03C22.2894 102.345 23.159 104.602 24.1546 106.789L13.7074 123.986C21.2675 139.579 36.1521 146.43 36.1521 146.43L52.8081 136.626C52.6075 136.513 52.4128 136.397 52.2151 136.283C54.3643 137.394 56.5881 138.383 58.8749 139.241L63.6476 158.788C80.0195 164.468 95.3886 158.788 95.3886 158.788L100.233 140.076C100.025 140.134 99.8202 140.188 99.6138 140.243C101.928 139.503 104.186 138.633 106.373 137.637L123.569 148.085C139.162 140.524 146.014 125.64 146.014 125.64L136.209 108.984C136.097 109.185 135.981 109.381 135.867 109.577C136.978 107.428 137.966 105.204 138.824 102.917L158.372 98.1445ZM80.6886 110.183C64.6284 110.183 51.609 97.1636 51.609 81.1035C51.609 65.0433 64.6284 52.0239 80.6886 52.0239C96.7487 52.0239 109.768 65.0433 109.768 81.1035C109.768 97.1636 96.7487 110.183 80.6886 110.183Z" fill="#0C1136"/>
</svg>
