<svg width="100%" height="100%" xmlns="http://www.w3.org/2000/svg" viewBox="0 0 3704.43 3704.43">
    <defs>
        <style>
            .zoom-1 {
                fill: #fff;
            }

            .zoom-2 {
                stroke: #fff;
                stroke-miterlimit: 10;
                stroke-width: 6px;
            }

            .zoom-2,
            .zoom-3 {
                fill: none;
            }
        </style>
    </defs>
    <g>
        <g>
            <polyline class="zoom-2" points="1733.71 1965.54 1611.71 1965.54 1611.71 1843.54" />
            <polyline class="zoom-2" points="2092.71 1843.54 2092.71 1965.54 1970.71 1965.54" />
            <polyline class="zoom-2" points="1611.71 1606.54 1611.71 1484.54 1733.71 1484.54" />
            <polyline class="zoom-2" points="1970.71 1484.54 2092.71 1484.54 2092.71 1606.54" />
        </g>
        <g>
            <circle class="zoom-2" cx="1842.21" cy="1715.04" r="58.5" />
            <g>
                <line class="zoom-2" x1="1842.21" y1="1685.5" x2="1842.21" y2="1744.59" />
                <line class="zoom-2" x1="1871.76" y1="1715.04" x2="1812.67" y2="1715.04" />
            </g>
            <line class="zoom-2" x1="1883.33" y1="1756.16" x2="1920.71" y2="1793.54" />
        </g>
        <g>
            <path class="zoom-1" d="M1420.66,2163.08v54.08h-6.72v-54.08h-14.56v-6.24h36v6.24h-14.72Z" />
            <path class="zoom-1"
                d="M1490.66,2155.8c8.75,0,16.17,3.03,22.28,9.08,6.11,6.05,9.16,13.45,9.16,22.2s-3.05,16.12-9.16,22.12c-6.11,6-13.53,9-22.28,9s-16.17-3-22.28-9c-6.11-6-9.16-13.37-9.16-22.12s3.05-16.15,9.16-22.2c6.11-6.05,13.53-9.08,22.28-9.08Zm0,6.24c-6.99,0-12.85,2.41-17.6,7.24-4.75,4.83-7.12,10.73-7.12,17.72s2.39,12.83,7.16,17.68c4.77,4.85,10.63,7.28,17.56,7.28s12.79-2.43,17.56-7.28c4.77-4.85,7.16-10.75,7.16-17.68s-2.37-12.89-7.12-17.72c-4.75-4.83-10.61-7.24-17.6-7.24Z" />
            <path class="zoom-1"
                d="M1600.58,2217.16h-7.4l-7.17-17.12h-25.77l-7.28,17.12h-7.34l27.84-63.2,27.12,63.2Zm-25.84-70.88l-1.2,3.12-13.28-8.72,4.16-4.24,10.32,9.84Zm8.68,47.52l-10.12-24.19-10.39,24.19h20.51Z" />
            <path class="zoom-1" d="M1627.53,2217.16v-62.89l47.04,49.32v-46.75h6.72v63.04l-47.04-49.2v46.48h-6.72Z" />
            <path class="zoom-1"
                d="M1754.09,2217.16l12.24-63.76,21.93,50.59,22-50.54,12.23,63.71h-6.92l-7.75-40.79h-.13s-19.44,43.28-19.44,43.28l-19.36-43.28h-.2s-7.75,40.8-7.75,40.8h-6.84Z" />
            <path class="zoom-1"
                d="M1899.54,2217.16h-7.4l-7.17-17.12h-25.77l-7.28,17.12h-7.34l27.84-63.2,27.12,63.2Zm-25.84-70.88l-1.2,3.12-13.28-8.72,4.16-4.24,10.32,9.84Zm8.68,47.52l-10.12-24.19-10.39,24.19h20.51Z" />
            <path class="zoom-1" d="M1926.49,2217.16v-62.89l47.04,49.32v-46.75h6.72v63.04l-47.04-49.2v46.48h-6.72Z" />
            <path class="zoom-1"
                d="M2064.49,2181.32h30.88v-24.48h6.72v60.32h-6.72v-29.6h-30.88v29.6h-6.72v-60.32h6.72v24.48Z" />
            <path class="zoom-1"
                d="M2139.45,2147.88l-1.2,3.12-13.28-8.72,4.16-4.24,10.32,9.84Zm2.08,8.96v60.32h-6.72v-60.32h6.72Z" />
            <path class="zoom-1" d="M2174.09,2217.16v-62.89l47.04,49.32v-46.75h6.72v63.04l-47.04-49.2v46.48h-6.72Z" />
            <path class="zoom-1"
                d="M2267.45,2181.32h30.88v-24.48h6.72v60.32h-6.72v-29.6h-30.88v29.6h-6.72v-60.32h6.72v24.48Z" />
        </g>
    </g>
    <rect class="zoom-3" width="3704.43" height="3704.43" />
</svg>